<?xml version="1.0" encoding="UTF-8"?>
<!DOCTYPE svg PUBLIC "-//W3C//DTD SVG 1.1//EN" "http://www.w3.org/Graphics/SVG/1.1/DTD/svg11.dtd">
<!-- Creator: CorelDRAW X7 -->
<svg xmlns="http://www.w3.org/2000/svg" xml:space="preserve" width="50mm" height="50mm" version="1.1" style="shape-rendering:geometricPrecision; text-rendering:geometricPrecision; image-rendering:optimizeQuality; fill-rule:evenodd; clip-rule:evenodd"
viewBox="0 0 5000 5000"
 xmlns:xlink="http://www.w3.org/1999/xlink">
 <defs>
  <style type="text/css">
   <![CDATA[
    .fil0 {fill:#018ED5}
    .fil1 {fill:#2383B4}
    .fil2 {fill:#9BA6B7}
   ]]>
  </style>
 </defs>
 <g id="Layer_x0020_1">
  <metadata id="CorelCorpID_0Corel-Layer"/>
  <g id="_2371681654496">
   <path class="fil0" d="M653 2696c0,71 8,174 38,236l61 113c9,14 15,23 26,38l63 65c6,5 3,2 9,8 63,62 158,109 235,155l314 192c15,8 4,2 18,12 48,34 103,58 151,93 16,11 21,11 37,20 2,1 3,2 4,3 1,0 3,1 4,2l362 225c18,9 21,12 37,21 10,7 9,5 19,11l21 13c2,0 3,1 4,2 7,4 5,2 11,6l206 127c14,9 20,13 35,22l419 239c45,14 97,23 150,26l77 0c63,-3 125,-15 177,-36l103 -53c129,-80 210,-221 285,-350l123 -202c5,-7 3,-4 7,-11l153 -248c10,-15 13,-22 22,-36 12,-23 28,-44 42,-69l75 -123c6,-10 5,-8 11,-17 5,-7 7,-11 11,-18l462 -761c17,-35 16,-51 28,-87 8,-23 13,-52 16,-82l0 -124c-2,-26 -6,-50 -11,-70 -24,-100 -77,-216 -158,-284 -29,-24 -53,-52 -86,-71l-25 -17c-31,-13 -11,14 -11,18 0,62 -22,204 -41,267 -21,68 -62,145 -119,189 -53,41 -59,64 -77,133l-120 397c-14,47 -71,214 -73,241 19,11 29,15 48,28 37,23 122,62 132,106 -69,0 -163,-54 -209,-58 -19,35 -50,134 -65,174l-74 170c-8,17 -11,20 -19,39l-188 307c-4,4 -5,6 -8,9 -6,6 -8,9 -13,16l-101 109c-95,86 -216,158 -345,178 -12,2 -35,4 -52,7 -114,21 -98,4 -182,-3 -28,-2 -59,-5 -83,-11 -28,-6 -38,-14 -71,-21 -84,-18 -172,-82 -249,-117 -16,-7 -18,-10 -30,-17 -14,-8 -20,-8 -32,-14 -53,-28 -106,-49 -165,-63l-72 -21c-100,-28 -218,-72 -218,-201 0,-85 1,-103 22,-183l22 -82c10,-44 4,-121 50,-189 13,-21 19,-18 40,-29 22,32 18,59 18,99 0,46 -4,86 -14,126 -3,14 -4,25 -6,40 -8,55 -22,109 -1,158 18,43 61,69 107,79 76,17 179,14 247,37 50,18 100,30 148,50 68,30 137,47 202,72 28,10 47,10 75,18 85,25 249,23 329,-23 38,-22 79,-41 112,-73l6 -6c41,-40 82,-83 110,-135 10,-19 21,-39 33,-59 46,-75 81,-161 111,-244 16,-43 36,-88 47,-133 7,-26 16,-42 23,-65 4,-16 4,-22 10,-36 8,-21 8,-6 8,-39 -56,-4 -128,-28 -204,-34 -81,-7 -115,-18 -220,-18 -69,0 -131,1 -194,16 -108,26 -208,67 -311,108 -74,29 -148,56 -228,74 -87,20 -173,26 -255,-19 -24,-13 -36,-19 -57,-36l-37 -33c-3,-3 -10,-11 -14,-16 -69,-83 -115,-234 -133,-344 -1,-10 -4,-26 -8,-38 -20,-58 -49,-297 -55,-376 -9,-116 -6,-237 -6,-354 0,-35 6,-43 6,-76 1,-27 -2,-52 2,-79l22 -235c1,-25 9,-42 11,-70l24 -226c6,-44 8,-110 16,-153 8,-44 16,-104 18,-150 3,-60 12,-98 12,-157 -42,9 -99,83 -122,122 -9,15 -12,18 -21,32l-833 1354c0,2 -1,3 -2,4l-93 151c-8,13 -12,15 -21,31 -25,42 -51,87 -65,133l-17 54c-12,40 -13,75 -13,116l0 2 0 2z"/>
   <path class="fil0" d="M2247 799c0,41 -5,61 -6,94 -2,58 -15,119 -22,175 -4,31 -5,62 -12,87l-74 426c-23,100 -27,206 -45,305l-16 134c-15,135 -17,221 -17,362 0,38 8,57 11,88 6,64 3,132 20,190 27,95 -21,101 99,78l176 -33c36,-6 48,-15 84,-21 91,-14 170,-50 261,-52l99 -6c21,1 20,5 47,6 117,4 129,14 234,28l324 95c22,7 59,26 82,28l58 -227c4,-21 6,-37 12,-57l31 -116c15,-60 -31,-23 -122,19l-101 45c-131,50 -305,73 -444,35 -15,-4 -23,-5 -38,-8l-174 -82c-11,-8 -14,-9 -25,-16l-93 -81c-63,-72 -118,-150 -149,-241 -38,-110 -55,-169 -55,-295 0,-83 15,-178 37,-260l74 -187 84 -126c67,-83 146,-152 233,-215 16,-11 8,-7 26,-15 27,-14 54,-43 87,-46l0 -17c-22,-6 -42,-20 -61,-32 -78,-51 -363,-233 -434,-258l-45 -19c-77,-28 -165,-29 -251,-29 1,33 14,32 32,56 25,32 47,74 61,113 5,16 12,55 12,75z"/>
   <path class="fil0" d="M3155 1160l-24 52c-8,19 -18,36 -29,53 -36,55 -93,104 -152,133 -10,5 -6,3 -11,6 -25,16 -57,50 -70,76 -22,44 -31,128 -20,178l14 67c21,133 131,258 269,301 56,17 157,19 221,1l61 -19c17,-6 16,-7 29,-13l86 -36c20,-9 36,-17 56,-25l90 -33c53,-20 51,4 73,-89 5,-18 6,-16 11,-30l41 -122c13,-34 24,-32 18,-58 5,-17 23,-49 29,-57 24,-27 25,-5 38,-45 -59,-37 -343,-202 -358,-229 10,-18 1,-9 -34,-30 -1,-1 -3,-2 -4,-3 -1,0 -2,-1 -3,-2l-79 -49c-7,-5 -8,-6 -14,-9 -10,-6 -20,-12 -29,-17l-29 -19c-29,-21 -24,-14 -35,-11 -58,-6 -77,-52 -121,-58 -2,16 -2,32 -5,49 -9,45 -6,36 -19,38z"/>
   <path class="fil1" d="M3818 1602c26,-11 7,3 25,-22 18,-25 39,-63 68,-71l0 -17c-21,-5 -29,-15 -46,-24l-112 -69c-39,-24 -191,-112 -203,-128l-23 0c15,27 299,192 358,229 -13,40 -14,18 -38,45 -6,8 -24,40 -29,57z"/>
   <path class="fil1" d="M3155 1160c13,-2 10,7 19,-38 3,-17 3,-33 5,-49 44,6 63,52 121,58 -7,-18 2,-6 -12,-18 -1,0 -15,-7 -19,-9l-103 -60c0,50 -9,74 -11,116z"/>
   <path class="fil2" d="M3899 3028c6,6 21,-9 7,-4 0,1 -17,-6 -7,4z"/>
  </g>
 </g>
</svg>
